<svg xmlns="http://www.w3.org/2000/svg" version="1.1" xmlns:xlink="http://www.w3.org/1999/xlink" xmlns:svgjs="http://svgjs.dev/svgjs" viewBox="0 0 800 800"><defs><linearGradient x1="50%" y1="0%" x2="50%" y2="100%" id="ccchaos-grad"><stop stop-color="hsl(0, 0%, 100%)" stop-opacity="1" offset="0%"></stop><stop stop-color="hsl(331, 0%, 66%)" stop-opacity="1" offset="100%"></stop></linearGradient></defs><g stroke-width="2" stroke="url(#ccchaos-grad)" fill="none" stroke-linecap="round"><path d="M422.23 109.46C432.63 114.8 442.97 120.47 453.2 125.76 463.4 129.68 473.42 132.31 483.15 133.55 492.72 133.02 501.85 131.58 510.36 129.69 518.52 127.41 525.87 125.83 532.23 125.45 538.06 126.19 542.79 128.78 546.34 133.27 549.44 139.25 551.53 146.86 552.8 155.73 554.2 165.31 555.4 175.42 556.86 185.66 559.55 195.54 563.41 204.98 568.91 213.8 576.64 221.68 586.49 228.85 598.5 235.37 612.39 240.99 627.63 246.22 643.41 251.23 658.79 255.71 672.68 260.31 683.92 265.17 691.85 269.88 695.58 275.07 694.75 280.79 690.24 286.59 682.24 292.98 671.97 299.96 661.74 307.05 652.6 314.68 646.25 322.79 644.52 330.97 647.58 339.57 655.44 348.51 667.57 357.47 682.09 366.73 696.88 376.25 710 385.77 718.82 395.33 722.09 404.95 719.86 414.61 711.98 424.4 699.63 434.36 684.69 444.48 668.73 454.89 653.64 465.67 641.11 476.72 632.03 488.26 626.87 500.29 625.96 512.62 628.34 525.43 633.01 538.59 639.47 551.8 645.86 565.07 651.03 578.08 654.78 590.47 655.75 602 653.66 612.21 648.91 620.94 641.21 627.73 631.06 632.25 619.09 634.87 605.72 635.18 591.61 633.35 577.15 630.48 562.87 626.51 549.14 622.21 536.02 619.08 523.79 617.32 512.47 617.78 501.98 621.47 492.28 628.25 483.21 638.09 474.74 650.73 466.61 665.08 458.64 679.93 450.96 694.05 443.2 705.82 435.22 713.86 427.33 717.65 419.1 716.37 410.48 710.14 401.86 700.43 392.8 688.01 383.33 674.64 373.85 662.9 364.19 654.03 354.44 649.12 344.75 648.99 335.02 652.96 325.37 660.1 315.85 669.74 306.51 679.75 297.46 688.56 288.65 695.49 280.25 698.88 272.37 698.2 264.81 693.8 257.84 685.51 251.54 674.09 245.51 660.57 240.1 645.76 235.27 630.73 230.49 616.36 226.07 603.3 221.89 592.03 217.33 582.93 212.69 575.87 207.81 570.64 202.17 567.32 196.08 565.14 189.51 563.6 182.18 562.88 174.51 561.98 166.68 560.52 158.65 558.92 150.96 556.31 143.91 552.59 137.47 548.32 132.15 542.88 128.14 536.39 125.1 529.37 123.34 521.46 122.75 512.84 122.59 503.89 123 494.44 123.66 484.65 123.72 474.71 123.43 464.59 122.64 454.38 120.8 444.14 118.51 433.89 116.05 423.66 113.26 413.44 111.11 403.48 109.93 393.78 109.53 384.04 110.58 374.49 113.08 365.07 116.53 355.52 121.15 346.01 126.6 336.45 132.19 326.66 137.95 316.72 143.57 306.57 148.43 296.11 152.78 285.39 156.6 274.42 159.51 263.22 162.1 251.86 164.57 240.47 166.72 229.17 169.26 218.14 172.43 207.61 176 197.7 180.56 188.7 186.14 180.88 192.49 174.12 199.88 168.76 208.19 164.9 217.14 162.03 226.77 160.4 236.9 159.79 247.33 159.32 258 159.11 268.76 158.73 279.5 157.3 290.2 154.97 300.79 151.5 311.21 146.43 321.51 140.27 331.71 133.31 341.73 125.66 351.71 118.21 361.69 111.61 371.56 106.09 381.51 102.52 391.58 101.25 401.61 101.9 411.83 104.76 422.22 109.45" stroke-dasharray="1 2" transform="rotate(0, 400, 400)" opacity="0.59"></path><path d="M421.57 120.33C431.55 125.61 441.28 131.23 450.71 136.55 460.1 140.61 469.1 143.49 477.64 145.06 486.02 144.92 493.8 143.8 500.85 142.12 510.58 138.96 525.05 138.03 529.77 142.25 532.51 147.07 534.67 153.56 536.5 161.45 538.87 170.24 541.52 179.83 544.87 189.85 549.67 199.83 555.84 209.65 563.7 219.1 573.51 227.84 585.11 235.97 598.31 243.5 612.68 250.18 627.63 256.36 642.35 262.18 655.99 267.37 667.62 272.46 676.29 277.6 681.67 282.43 683.09 287.53 680.48 293 674.88 298.38 666.56 304.25 656.71 310.62 647.47 317.02 639.66 323.94 634.72 331.36 634.16 338.81 637.97 346.75 646.05 355.13 657.87 363.51 671.72 372.33 685.71 381.56 698.19 390.79 706.77 400.23 710.34 409.89 708.93 419.58 702.26 429.55 691.29 439.81 677.59 450.18 662.49 460.93 647.66 472.05 634.68 483.34 624.46 495.04 617.61 507.1 614.62 519.24 614.87 531.61 617.65 544.02 622.66 556.18 628.3 568.04 633.52 579.25 638.13 589.61 640.71 598.81 640.83 606.47 638.76 612.67 633.94 616.96 626.63 619.18 617.38 619.91 606.35 618.81 594.09 616.18 581 613.17 567.53 609.73 554.1 606.59 540.81 605.06 528.02 605.23 515.89 607.73 504.32 613.28 493.44 621.58 483.22 632.45 473.52 645.46 464.29 659.56 455.4 673.59 446.83 686.49 438.41 696.85 430 703.53 421.73 706.21 413.35 704.24 404.79 697.82 396.25 688.34 387.48 676.47 378.48 663.77 369.47 652.56 360.46 643.91 351.49 638.8 342.56 638.04 333.73 641.07 325.1 647.16 316.58 655.82 308.34 665.16 300.47 673.83 292.78 681.21 285.55 685.67 278.84 686.62 272.33 684.24 266.37 678.15 260.97 668.87 255.68 657.23 250.85 643.82 246.4 629.57 241.8 615.31 237.36 601.7 232.94 589.3 228 578.53 222.83 569.51 217.31 562.2 211.03 556.73 204.3 552.6 197.16 549.44 189.42 547.39 181.49 545.61 173.58 543.75 165.69 542.15 158.31 539.96 151.72 536.98 145.86 533.76 141.18 529.59 137.81 524.46 135.37 518.96 134.13 512.56 133.93 505.39 134.05 497.92 134.62 489.82 135.32 481.2 135.38 472.44 135.02 463.3 134.12 453.87 132.18 444.41 129.8 434.73 127.22 424.88 124.32 415.03 122.02 405.26 120.65 395.55 120.03 385.82 120.83 376.12 123.06 366.4 126.27 356.59 130.68 346.7 136 336.68 141.58 326.5 147.44 316.13 153.26 305.56 158.45 294.83 163.2 283.92 167.41 272.89 170.71 261.84 173.57 250.82 176.18 239.99 178.28 229.49 180.57 219.48 183.24 210.18 186.11 201.64 189.76 194.14 194.29 187.86 199.46 182.58 205.63 178.61 212.73 175.95 220.49 174.01 229.06 173.02 238.25 172.72 247.88 172.25 257.92 171.75 268.22 170.84 278.68 168.75 289.22 165.7 299.76 161.53 310.27 155.91 320.71 149.37 331.05 142.23 341.32 134.62 351.49 127.39 361.59 121.14 371.63 116.03 381.64 112.84 391.62 111.88 401.6 112.72 411.58 115.66 421.56 120.32" stroke-dasharray="4 1" transform="rotate(4.04, 400, 400)" opacity="0.40"></path><path d="M416.8 131.2C426.28 136.4 435.35 141.97 443.98 147.29 452.56 151.47 460.63 154.59 468.11 156.48 475.47 156.72 482.17 155.97 488.13 154.56 496.4 151.47 508.97 149.1 513.6 151.87 516.72 155.54 519.65 160.85 522.67 167.62 526.5 175.42 530.97 184.23 536.4 193.72 543.28 203.46 551.55 213.33 561.35 223.07 572.67 232.39 585.32 241.28 598.97 249.68 613.08 257.35 627.09 264.53 640.21 271.28 651.76 277.38 660.96 283.23 667.09 288.97 670.12 294.29 669.56 299.7 665.54 305.31 659.23 310.71 650.9 316.46 641.71 322.6 633.56 328.67 627.1 335.21 623.51 342.22 624 349.22 628.46 356.71 636.67 364.69 648.15 372.67 661.32 381.14 674.54 390.12 686.38 399.1 694.71 408.39 698.52 417.98 697.86 427.6 692.32 437.56 682.68 447.84 670.27 458.2 656.15 468.9 641.8 479.91 628.66 490.97 617.61 502.3 609.37 513.78 604.51 525.15 602.72 536.48 603.52 547.55 606.8 558.16 611.23 568.15 615.93 577.24 623.65 595.61 608.36 602.58 594.18 598.9 583.08 596.34 571.15 593.93 558.78 592.3 546.15 592.54 533.61 594.66 521.38 599.07 509.4 606.22 497.92 615.73 486.99 627.27 476.43 640.33 466.36 653.93 456.73 666.97 447.37 678.59 438.3 687.55 429.45 692.93 420.73 694.6 412.1 692.04 403.5 685.47 394.95 676.26 386.35 664.94 377.73 652.91 369.1 642.22 360.63 633.81 352.36 628.54 344.12 627.22 336.11 629.37 328.39 634.43 320.75 642.08 313.46 650.68 306.59 659.01 299.82 666.6 293.51 671.87 287.68 674.17 281.93 673.61 276.63 669.6 271.76 662.47 266.82 652.87 262.18 641.18 257.74 628.17 252.97 614.58 248.2 601.02 243.28 588.09 237.77 576.22 231.94 565.69 225.73 556.62 218.82 549.15 211.53 543.05 203.95 538.07 195.95 534.33 187.94 531.2 180.15 528.36 172.57 526.09 165.65 523.61 159.66 520.71 152.47 516.09 145.53 502.88 145.3 494.18 145.64 487.93 146.32 480.97 147.04 473.41 147.04 465.73 146.59 457.52 145.58 448.88 143.54 440.19 141.07 431.12 138.39 421.71 135.39 412.3 132.96 402.79 131.41 393.19 130.59 383.58 131.12 373.85 133.06 364.01 135.98 354.12 140.14 344.08 145.27 333.87 150.77 323.59 156.66 313.14 162.64 302.56 168.12 291.96 173.24 281.29 177.87 270.67 181.61 260.21 184.87 249.97 187.75 240.13 190 230.76 192.23 222.06 194.64 214.22 197.01 207.17 199.96 201.2 203.61 196.41 207.71 192.48 212.71 189.69 218.59 187.97 225.08 186.68 232.41 186.03 240.45 185.76 249 185.05 258.09 184.08 267.57 182.52 277.35 179.72 287.34 175.94 297.45 171.13 307.67 165.03 317.9 158.2 328.06 150.98 338.25 143.5 348.35 136.56 358.33 130.69 368.31 126.01 378.18 123.21 387.93 122.54 397.68 123.57 407.31 126.57 416.79 131.19" stroke-dasharray="2 6" transform="rotate(8.08, 400, 400)" opacity="0.10"></path><path d="M408.82 142.07C417.74 147.19 426.17 152.68 434.08 157.98 441.94 162.27 449.24 165.6 455.94 167.8 465.54 168.26 481.44 164.11 487.85 161.72 493.93 160.68 505.56 166.81 512.25 174.45 517.77 181.11 524.12 188.92 531.52 197.6 540.21 206.78 550.13 216.34 561.26 226.04 573.43 235.59 586.4 244.93 599.75 253.94 612.95 262.42 625.47 270.47 636.59 278.11 645.86 285.17 652.62 291.9 656.36 298.42 657.3 304.48 655.12 310.48 650.08 316.53 643.41 322.3 635.38 328.26 627.02 334.5 620.04 340.59 614.92 347.06 612.59 353.93 614.04 360.74 619.04 368 627.31 375.74 638.41 383.46 650.91 391.68 663.37 400.42 674.58 409.16 682.64 418.23 686.65 427.61 686.64 437 682.17 446.72 673.81 456.72 662.7 466.73 649.67 477 635.98 487.44 622.94 497.83 611.39 508.29 602.06 518.69 595.61 528.83 591.92 538.67 590.76 548.01 592.15 556.77 595.05 564.7 598.74 571.57 607.92 583.79 601.55 585.37 591.13 582.13 582.38 580.51 572.47 579.48 561.77 579.57 550.5 581.64 538.92 585.61 527.31 591.72 515.66 600.17 504.24 610.55 493.17 622.41 482.29 635.24 471.82 648.11 461.76 660.04 451.9 670.32 442.39 677.91 433.2 682.07 424.13 682.83 415.29 679.75 406.64 673.12 398.03 664.19 389.56 653.43 381.22 642.04 372.88 631.87 364.85 623.71 357.14 618.34 349.44 616.51 342.08 617.85 335.09 621.93 328.12 628.56 321.55 636.32 315.39 644.19 306.4 654.66 290.36 660.88 283.12 654.77 278.17 647.29 273.37 637.52 268.6 626.09 263.4 613.66 258.06 600.71 252.49 587.86 246.32 575.51 239.8 564.03 232.93 553.65 225.5 544.54 217.8 536.66 209.95 529.9 201.9 524.35 194.02 519.62 186.53 515.43 179.44 511.99 173.13 508.68 167.83 505.28 161.73 500.39 156.57 488.22 156.86 480.53 157.37 475.09 158.11 468.98 158.78 462.24 158.7 455.42 158.14 448.01 157.01 440.07 154.88 432.1 152.32 423.64 149.56 414.71 146.48 405.78 143.94 396.63 142.23 387.28 141.2 377.93 141.47 368.39 143.1 358.67 145.71 348.94 149.57 339.04 154.45 328.99 159.8 318.96 165.65 308.82 171.7 298.64 177.41 288.58 182.86 278.58 187.9 268.78 192.11 259.29 195.83 250.19 199.11 241.63 201.66 233.64 204.04 226.41 206.41 220.1 209.79 212.27 219.25 202.77 225.99 200.74 231.24 199.79 237.3 199.2 244.09 198.7 251.38 197.56 259.29 195.96 267.7 193.67 276.48 190.14 285.59 185.67 294.93 180.28 304.48 173.81 314.13 166.78 323.8 159.57 333.56 152.31 343.27 145.71 352.88 140.27 362.52 136.03 372.04 133.61 381.38 133.23 390.73 134.44 399.9 137.49 408.81 142.06" stroke-dasharray="7 2" transform="rotate(12.12, 400, 400)" opacity="0.67"></path><path d="M399.17 152.93C407.5 157.96 415.35 163.36 422.67 168.63 429.97 173 436.74 176.52 442.96 179.01 451.98 180.06 467.57 176.82 474.47 174.39 481.51 172.74 496.65 176.22 505.74 182.09 512.9 187.53 520.93 194.19 529.93 201.85 539.94 210.17 550.89 219.1 562.66 228.4 574.96 237.81 587.53 247.23 599.93 256.52 611.69 265.5 622.31 274.19 631.22 282.54 638.15 290.43 642.57 298 644.18 305.31 643.39 312.19 639.97 318.91 634.3 325.57 627.6 331.93 620.09 338.35 612.72 344.91 606.96 351.29 603.13 357.93 601.97 364.86 604.26 371.71 609.69 378.92 617.97 386.54 628.65 394.13 640.49 402.16 652.2 410.64 662.79 419.13 670.56 427.89 674.71 436.9 675.29 445.91 671.8 455.14 664.66 464.55 654.85 473.93 642.97 483.42 630.11 492.92 617.42 502.28 605.66 511.52 595.58 520.48 587.83 529.1 582.49 537.22 579.48 544.67 590.38 567.39 574.41 566.42 561.91 568.6 552.49 572.43 542.44 578.05 532.05 585.55 521.37 594.98 510.64 605.86 500.03 617.73 489.42 630.06 479.06 642.01 469.01 652.73 459.06 661.67 449.43 667.94 440.14 670.96 430.93 670.9 422.01 667.4 413.37 660.75 404.77 652.14 396.41 641.92 388.29 631.17 380.17 621.52 372.46 613.63 365.15 608.19 357.83 605.93 350.91 606.52 344.39 609.66 337.85 615.28 331.71 622.16 325.95 629.42 320.13 636.78 314.65 642.86 309.49 647.02 304.18 649.29 299.08 648.86 294.13 645.73 288.87 640.32 283.63 632.58 278.3 622.97 272.51 612.06 266.5 600.22 260.22 587.99 253.41 575.77 246.29 563.95 238.9 552.81 231.11 542.56 223.2 533.29 215.32 525 207.43 517.79 199.9 511.43 192.91 505.75 186.45 500.89 180.88 496.39 176.35 492.07 171.37 486.17 167.88 473.47 168.58 466.12 169.21 461.06 169.95 455.43 170.55 449.23 170.36 442.99 169.67 436.18 168.41 428.82 166.19 421.44 163.56 413.53 160.73 405.12 157.59 396.7 154.96 387.99 153.1 379.04 151.87 370.11 151.88 360.96 153.19 351.62 155.47 342.32 158.99 332.87 163.56 323.34 168.68 313.89 174.41 304.42 180.46 295.04 186.31 285.85 192.02 276.87 197.43 268.23 202.11 259.97 206.32 252.21 210.07 245.11 214.41 235.7 221.59 222.11 225.32 218.05 229.55 215.39 241.56 212.65 249.56 211.3 255.57 209.57 262.22 207.26 269.41 204.2 276.98 199.97 284.99 194.88 293.31 189.01 301.89 182.26 310.67 175.16 319.55 168.06 328.58 161.08 337.63 154.88 346.62 149.88 355.68 146.09 364.63 144.07 373.41 143.96 382.22 145.34 390.82 148.42 399.16 152.93" stroke-dasharray="5 8" transform="rotate(16.16, 400, 400)" opacity="0.80"></path><path d="M389.67 163.8C397.45 168.72 404.8 174.02 411.71 179.23 418.61 183.66 425.08 187.35 431.13 190.11 440.05 191.74 456.48 189.56 464.4 187.26 469.98 185.68 475.69 184.77 481.69 184.77 488.26 185.49 495.35 187.44 503.08 190.67 511.59 194.87 520.86 200.3 530.91 206.79 541.62 214.03 552.93 222.06 564.63 230.63 576.38 239.53 587.93 248.66 598.85 257.86 608.79 266.97 617.29 275.96 623.91 284.73 628.6 293.2 630.9 301.42 630.7 309.38 628.55 316.99 624.3 324.42 618.36 331.7 611.91 338.71 605.14 345.67 598.85 352.67 594.32 359.48 591.73 366.42 591.64 373.53 594.66 380.56 600.42 387.84 608.63 395.4 618.87 402.93 630.04 410.79 641.03 418.99 651.01 427.19 658.47 435.55 662.72 444.03 663.81 452.5 661.21 461.07 655.24 469.66 646.69 478.19 636.02 486.65 624.11 494.96 611.99 503.08 600.31 510.9 589.79 518.27 581.08 525.29 574.35 531.68 569.7 537.31 575.96 552.13 567.71 554.69 558.44 559.43 551.09 564.84 542.91 571.85 534.14 580.41 524.93 590.45 515.41 601.5 505.76 613.06 495.97 624.67 486.22 635.56 476.63 645.01 467.04 652.61 457.66 657.62 448.56 659.61 439.49 658.83 430.7 654.98 422.2 648.37 413.72 640.09 405.51 630.43 397.59 620.3 389.66 611.16 382.17 603.56 375.11 598.1 368.03 595.45 361.34 595.37 355.05 597.63 348.69 602.26 342.69 608.22 337.01 614.78 331.21 621.74 325.67 627.86 320.33 632.54 314.78 635.79 309.33 636.76 303.91 635.34 298.16 631.89 292.31 626.16 286.32 618.49 279.89 609.36 273.23 599 266.32 587.86 258.98 576.33 251.44 564.76 243.73 553.47 235.83 542.65 227.95 532.49 220.28 523.11 212.79 514.55 205.79 506.77 199.48 499.7 193.78 493.39 189.01 487.58 185.29 482.12 181.43 474.74 179.45 460.35 180.46 452.75 181.14 447.65 181.83 442.15 182.31 436.2 182 430.25 181.16 423.82 179.77 416.89 177.48 409.95 174.78 402.53 171.9 394.62 168.72 386.71 166.01 378.52 164.02 370.12 162.61 361.73 162.36 353.15 163.35 344.44 165.27 335.8 168.42 327.07 172.64 318.34 177.47 309.75 182.99 301.25 188.94 292.94 194.84 284.88 200.73 277.14 206.43 269.84 211.53 262.93 216.23 256.6 220.49 250.95 229.58 238.57 240.88 228.62 245.36 227.3 250.62 225.55 264.6 219.4 273.3 214.05 279.62 209.17 286.41 203.55 293.59 197.32 301.02 190.41 308.74 183.35 316.65 176.45 324.73 169.83 332.91 164.07 341.1 159.55 349.38 156.22 357.62 154.58 365.74 154.74 373.89 156.26 381.88 159.36 389.66 163.8" stroke-dasharray="2 8" transform="rotate(20.200000000000003, 400, 400)" opacity="0.84"></path><path d="M382.14 174.67C389.41 179.47 396.38 184.65 403.04 189.79 409.7 194.25 416.08 198.07 422.21 201.08 428.39 202.84 434.38 203.7 440.26 203.8 446.31 202.89 452.37 201.62 458.54 200.25 465.05 198.63 471.85 197.47 479.03 196.99 486.72 197.01 494.95 198.07 503.76 200.24 513.12 203.27 523.06 207.45 533.51 212.7 544.27 218.73 555.25 225.64 566.21 233.24 576.84 241.3 586.89 249.78 595.97 258.52 603.88 267.38 610.2 276.27 614.61 285.11 617.26 293.81 617.77 302.36 616.14 310.72 613.03 318.85 608.32 326.8 602.44 334.58 596.51 342.15 590.62 349.61 585.48 357.01 582.15 364.26 580.71 371.52 581.58 378.84 585.21 386.08 591.22 393.44 599.28 400.95 609.07 408.44 619.58 416.11 629.86 423.98 639.25 431.85 646.39 439.73 650.69 447.58 652.21 455.41 650.42 463.18 645.53 470.82 638.21 478.38 628.76 485.71 617.91 492.74 606.53 499.57 595.18 505.97 584.53 511.81 575.19 517.34 567.42 522.2 561.38 526.28 560.68 537.17 557.43 544.94 551.09 552.05 545.78 558.77 539.54 566.83 532.56 576.08 525.09 586.38 517.11 597.27 508.78 608.27 500.22 618.96 491.49 628.68 482.73 636.82 473.9 643.13 465.13 646.96 456.51 648.02 447.89 646.62 439.45 642.51 431.24 635.98 423.05 628.07 415.07 618.96 407.34 609.43 399.62 600.8 392.3 593.49 385.36 588.05 378.4 585.09 371.79 584.4 365.5 585.85 359.14 589.52 353.06 594.55 347.21 600.33 341.22 606.75 335.38 612.7 329.65 617.63 323.69 621.56 317.73 623.64 311.73 623.68 305.41 621.97 298.95 618.15 292.32 612.42 285.34 605.2 278.15 596.56 270.79 586.88 263.15 576.51 255.42 565.72 247.67 554.83 239.9 544.05 232.33 533.59 225.1 523.62 218.21 514.2 211.93 505.4 206.42 497.21 201.57 489.66 197.65 482.63 194.75 476.04 191.94 467.03 191.26 450.29 192.47 442.02 193.14 436.6 193.74 430.94 194.07 424.99 193.6 419.08 192.62 412.81 191.1 406.17 188.73 399.53 185.99 392.49 183.07 385.07 179.87 377.64 177.1 370.02 175 362.24 173.41 354.5 172.92 346.63 173.59 338.73 175.15 330.89 177.89 323.07 181.71 315.36 186.19 307.79 191.43 300.42 197.18 293.34 203.03 286.51 208.99 280.08 214.89 274.14 220.33 268.56 225.46 263.57 230.21 259.23 240.76 249.9 252.84 242.05 256.85 240.4 261.21 237.89 272.54 229.59 279.64 223.18 284.79 217.75 290.42 211.72 296.47 205.25 302.73 198.32 309.34 191.4 316.21 184.8 323.23 178.6 330.44 173.32 337.76 169.29 345.16 166.42 352.6 165.14 360.02 165.55 367.47 167.2 374.86 170.32 382.13 174.67" stroke-dasharray="4 6" transform="rotate(24.24, 400, 400)" opacity="0.73"></path><path d="M378.01 185.54C384.84 190.21 391.53 195.25 398.06 200.3 404.61 204.76 411.03 208.7 417.37 211.91 423.79 214 430.19 215.27 436.64 215.79 443.26 215.32 450.05 214.41 457.06 213.28 464.38 211.77 472.04 210.51 480.1 209.73 488.55 209.22 497.44 209.56 506.78 210.83 516.43 212.79 526.41 215.8 536.6 219.82 546.78 224.58 556.84 230.25 566.53 236.69 575.62 243.68 583.86 251.23 590.92 259.18 596.74 267.4 600.97 275.83 603.4 284.35 604.31 292.9 603.39 301.42 600.73 309.84 597.06 318.16 592.24 326.35 586.71 334.38 581.48 342.29 576.59 350.07 572.62 357.73 570.45 365.29 570.07 372.78 571.77 380.23 575.9 387.62 582.06 395.01 589.94 402.42 599.25 409.82 609.1 417.26 618.69 424.74 627.49 432.23 634.3 439.57 638.6 446.74 640.49 453.88 639.42 460.82 635.53 467.48 629.4 474.06 621.16 480.3 611.42 486.12 600.94 491.77 590.15 496.91 579.65 501.47 570.02 505.78 561.53 509.44 554.42 512.41 543.96 520.22 546.49 526.18 546.09 530.31 545.08 534.55 543.08 539.85 540.1 546.31 536.56 554.02 532.1 562.76 526.85 572.34 521.13 582.56 514.79 592.99 507.95 603.2 500.83 612.83 493.37 621.32 485.71 628.17 477.92 633.23 470.04 635.98 462.15 636.21 454.22 634.28 446.35 629.98 438.59 623.6 430.82 616.06 423.19 607.49 415.7 598.56 408.22 590.43 401.05 583.44 394.18 578.04 387.28 574.83 380.65 573.61 374.25 574.31 367.77 577.08 361.48 581.17 355.32 586.12 349.03 591.88 342.8 597.48 336.59 602.42 330.17 606.75 323.7 609.63 317.14 610.83 310.31 610.61 303.35 608.51 296.25 604.62 288.9 599.32 281.42 592.52 273.86 584.52 266.19 575.65 258.55 566.08 251.05 556.09 243.68 545.9 236.65 535.71 230.09 525.72 223.98 515.98 218.55 506.65 213.93 497.79 209.96 489.36 206.89 481.41 204.78 473.89 203.26 466.8 202.58 460.03 202.64 453.51 202.93 447.28 203.63 441.17 204.58 435.1 205.18 429.19 205.64 423.21 205.8 417.1 205.17 411.04 204.03 404.79 202.4 398.32 199.96 391.85 197.17 385.13 194.24 378.15 191.03 371.17 188.22 364.11 186.03 357.01 184.3 349.93 183.57 342.85 183.93 335.83 185.11 328.88 187.45 322.05 190.83 315.42 194.9 308.93 199.77 302.71 205.25 296.86 210.93 291.23 216.85 286.03 222.83 281.34 231.25 274.98 245.87 265.46 251.88 262.23 260.85 257.4 272.9 249.43 277.47 245.09 280.67 241.18 284.3 236.69 288.36 231.59 292.56 225.73 297.21 219.43 302.26 212.86 307.47 206.02 313.04 199.35 318.93 193.13 324.93 187.4 331.2 182.64 337.65 179.11 344.17 176.69 350.83 175.76 357.58 176.4 364.34 178.17 371.16 181.29 378 185.54" stroke-dasharray="3 0" transform="rotate(28.28, 400, 400)" opacity="0.92"></path><path d="M378.07 196.41C384.54 200.93 391.02 205.82 397.49 210.76 403.98 215.21 410.5 219.21 417.07 222.61 423.73 225 430.5 226.65 437.43 227.59 444.52 227.57 451.85 227.07 459.44 226.27 467.27 224.97 475.42 223.77 483.91 222.85 492.62 222.03 501.65 221.83 510.91 222.38 520.25 223.44 529.68 225.41 539.03 228.28 548.11 231.81 556.79 236.23 564.85 241.42 572.15 247.19 578.44 253.6 583.48 260.52 587.34 267.8 589.7 275.43 590.45 283.29 590 291.3 588.05 299.41 584.78 307.53 580.9 315.67 576.28 323.75 571.34 331.74 566.96 339.68 563.14 347.5 560.31 355.2 559.23 362.84 559.8 370.38 562.21 377.8 566.72 385.2 572.95 392.51 580.59 399.73 589.39 406.95 598.6 414.09 607.52 421.14 615.74 428.19 622.21 434.98 626.48 441.47 628.67 447.94 628.23 454.09 625.26 459.87 620.23 465.58 613.18 470.87 604.6 475.69 595.11 480.39 585.06 484.57 574.97 488.19 565.36 491.67 556.49 494.58 548.65 496.93 531.21 505.39 529.44 516.35 529.45 522.61 529.11 528.13 528.04 534.59 526.2 541.98 523.97 550.32 520.94 559.37 517.16 568.92 513 578.75 508.18 588.49 502.78 597.72 497.11 606.2 491 613.43 484.54 619.01 477.93 622.91 471.07 624.68 464.07 624.18 457 621.84 449.84 617.42 442.65 611.21 435.45 604.06 428.25 596.03 421.07 587.69 413.89 580.06 406.9 573.38 400.09 568.08 393.27 564.67 386.59 562.99 380.05 563.02 373.44 564.94 366.92 568.13 360.45 572.22 353.86 577.24 347.27 582.34 340.64 587.07 333.85 591.53 326.98 594.91 320.02 596.97 312.88 597.94 305.64 597.3 298.31 595.07 290.86 591.57 283.38 586.6 275.93 580.38 268.52 573.21 261.27 565.15 254.28 556.45 247.55 547.31 241.27 537.9 235.56 528.41 230.33 518.93 225.83 509.61 222.13 500.56 219.04 491.76 216.79 483.3 215.39 475.2 214.47 467.41 214.25 459.94 214.62 452.77 215.09 445.85 215.86 439.13 216.75 432.56 217.24 426.15 217.53 419.8 217.49 413.47 216.68 407.2 215.4 400.89 213.64 394.51 211.15 388.14 208.35 381.66 205.41 375.08 202.22 368.51 199.39 361.98 197.12 355.53 195.26 349.11 194.31 342.79 194.37 336.64 195.19 330.55 197.1 324.67 200.03 319.07 203.64 313.58 208.09 308.43 213.19 303.66 218.6 299.06 224.36 294.89 230.29 291.2 238.92 286.14 254.69 278.51 261.48 275.73 267.17 273.08 276.77 267.8 281.08 264.51 285.07 259.95 293.89 247.39 299 239.29 302.55 233.15 306.48 226.73 310.78 220.2 315.15 213.58 319.89 207.26 324.96 201.48 330.09 196.28 335.53 192.05 341.23 189.02 346.97 187.04 352.93 186.45 359.09 187.3 365.25 189.17 371.58 192.27 378.06 196.4" stroke-dasharray="7 4" transform="rotate(32.32, 400, 400)" opacity="0.42"></path><path d="M382.3 207.28C388.48 211.64 394.78 216.37 401.19 221.18 407.62 225.57 414.19 229.62 420.91 233.16 427.7 235.81 434.68 237.81 441.87 239.16 449.18 239.6 456.74 239.55 464.54 239.13 472.48 238.16 480.67 237.14 489.07 236.25 497.53 235.29 506.14 234.76 514.78 234.8 523.3 235.16 531.67 236.27 539.73 238.15 547.36 240.56 554.39 243.77 560.63 247.74 566.09 252.24 570.47 257.42 573.63 263.16 575.78 269.3 576.59 275.89 576.05 282.8 574.62 289.97 572.06 297.33 568.55 304.82 564.79 312.42 560.64 320.05 556.47 327.66 553.03 335.29 550.28 342.86 548.57 350.32 548.47 357.79 549.87 365.13 552.87 372.34 557.66 379.54 563.87 386.61 571.22 393.53 579.52 400.45 588.08 407.22 596.35 413.81 604 420.39 610.12 426.64 614.32 432.52 616.8 441.12 607.75 456.22 597.38 462.62 588.97 466.67 579.81 470.25 570.34 473.35 561.03 476.4 552.1 479.02 543.86 481.23 533.46 484.47 519.53 490.21 515.74 493.29 514.03 497.38 513.02 508.97 512.65 517.05 512.41 523.57 511.7 530.83 510.44 538.79 509.01 547.38 506.94 556.38 504.22 565.57 501.25 574.75 497.65 583.59 493.49 591.72 489.1 598.99 484.21 604.97 478.89 609.34 473.43 612.17 467.63 613.07 461.54 611.97 455.38 609.28 449.01 604.82 442.47 598.83 435.91 592.09 429.22 584.59 422.42 576.82 415.62 569.68 408.87 563.34 402.19 558.15 395.5 554.6 388.84 552.54 382.22 551.97 375.56 553.11 368.9 555.43 362.22 558.67 355.46 562.89 348.65 567.36 341.78 571.71 334.81 576.06 327.77 579.66 320.65 582.28 313.46 584.12 306.23 584.65 298.98 583.81 291.74 581.91 284.57 578.65 277.54 574.18 270.67 568.77 264.06 562.38 257.82 555.2 251.93 547.45 246.55 539.21 241.78 530.68 237.52 521.95 233.96 513.15 231.17 504.42 228.9 495.75 227.39 487.26 226.6 479.03 226.17 470.95 226.29 463.15 226.87 455.62 227.44 448.26 228.18 441.14 228.95 434.23 229.28 427.45 229.37 420.81 229.12 414.31 228.13 407.86 226.7 401.5 224.85 395.19 222.31 388.9 219.5 382.64 216.58 376.41 213.42 370.19 210.59 364.14 208.27 358.28 205.72 349.63 206.14 333.57 209.34 326.31 212.46 321.64 216.43 317.34 221.09 313.42 226.13 309.59 231.6 306.16 237.36 303.14 243.1 300.17 248.87 297.59 254.57 295.35 262.52 292.06 276.51 286.18 282.54 283.14 287.7 279.3 297.05 269.32 301.58 262.83 304.46 257.73 307.52 252.21 310.82 246.36 314.05 240.09 317.58 233.69 321.41 227.35 325.24 221.05 329.4 215.17 333.88 209.9 340.78 203.41 356.13 197.34 364.51 198.25 370.18 200.19 376.11 203.26 382.29 207.27" stroke-dasharray="7 6" transform="rotate(36.36, 400, 400)" opacity="0.48"></path><path d="M389.91 218.15C395.84 222.35 401.95 226.89 408.24 231.55 414.55 235.87 421.05 239.92 427.74 243.56 441.26 248.46 455.67 251.07 470.81 251.78 486.07 250.14 501.74 248.5 517.08 247.91 531.42 247.95 544.02 250.55 553.62 255.83 560.28 262.9 562.69 272.42 560.56 283.73 556.19 296.18 549.39 309.61 542.22 323.38 538.38 337.52 538.44 351.55 543.73 365.11 548.7 371.92 554.82 378.59 561.84 385.09 569.61 391.6 577.55 397.92 585.18 404.03 592.28 410.15 598.03 415.89 602.13 421.25 604.72 426.6 605.3 431.56 603.88 436.12 596.22 445.18 582.54 452.62 565.57 458.55 548.21 464.64 532.22 469.71 519.08 474.36 509.79 480.32 503.63 487.16 499.68 495.69 498.07 506.95 496.57 520.6 494.15 536.36 491.75 553.5 487.38 570.46 480.95 585.1 473.96 596.12 465.08 601.33 454.67 599.57 449.38 596.64 443.77 592.2 437.89 586.46 432 580.13 425.86 573.16 419.5 565.95 413.14 559.29 406.72 553.29 400.26 548.26 393.8 544.62 387.29 542.25 380.73 541.17 367.56 543.45 354.11 549.28 340.43 556.5 326.65 564.51 312.71 569.77 298.96 571.01 285.62 568.95 273.11 562.25 262.13 551.8 252.63 538.87 245.47 523.92 241.08 508.14 238.37 491.96 237.98 476.06 239.33 460.95 240.22 446.18 240.95 432.22 240.67 419.08 239.52 412.58 237.95 406.23 236 400.03 233.44 393.86 230.64 387.81 227.75 381.9 223.23 373.17 216.76 357.09 215.62 349.79 216.56 340.3 221.21 332.11 229.02 325.34 238.51 318.62 249.55 313.19 261.11 308.83 271.91 303.88 282.06 299.23 291.35 294.29 299.05 287.53 306.2 279.56 313.16 270.12 319.2 258.72 325.76 246.48 333.14 234.38 340.27 222.97 348.54 214.12 358 209.16 365.22 208.02 381.16 212.75 389.9 218.14" stroke-dasharray="9 4" transform="rotate(40.400000000000006, 400, 400)" opacity="0.96"></path><path d="M399.44 229.02C410.81 237.15 423.01 245.88 435.89 253.81 448.86 259.17 462.51 262.56 476.52 264.14 490.34 263.36 504.01 262.18 516.74 261.52 528.21 260.89 537.55 262.2 543.82 265.72 547.6 270.59 547.75 277.75 544.39 286.75 539.9 296.87 534.08 308.22 528.7 320.21 526.79 332.7 528.54 345.34 534.77 357.72 545.94 370.23 559.87 382.27 574.01 393.55 586.31 404.83 592.93 414.74 592.79 423.28 586.99 431.82 575.53 439.11 560.53 445.35 544.39 451.99 528.57 458.19 514.58 464.51 503.45 472.23 495 481.09 488.76 491.6 484.94 504.24 481.87 518.67 478.64 534.31 475.98 550.39 472.05 565.48 466.55 577.78 460.81 586.47 453.37 589.79 444.35 587.01 435.15 579.92 424.6 568.57 412.86 555.09 401.12 543.48 388.84 534.94 376.21 530.6 363.6 531.48 350.62 535.68 337.48 541.56 324.48 548.82 311.52 554.35 299.05 556.91 287.26 557.08 276.57 553.26 267.58 545.9 260.05 536.16 254.74 524.02 251.89 510.52 250.27 496.19 250.48 481.58 251.93 467.29 252.6 453.05 252.89 439.4 252.14 426.56 248.87 413.84 244.26 401.8 238.92 390.58 232.77 379.35 228.32 369.38 226.45 360.69 226.69 351.98 230.36 344.53 237.06 338.3 245.55 331.89 255.84 326.41 267.02 321.58 277.93 315.91 288.59 310.16 298.63 303.85 307.4 295.84 315.58 286.71 323.39 276.43 330.23 264.76 337.26 252.75 344.79 241.38 351.92 231.06 359.94 223.38 368.99 219.42 377.93 218.65 388.05 222.01 399.43 229.01" stroke-dasharray="5 3" transform="rotate(44.44, 400, 400)" opacity="0.43"></path><path d="M409.07 239.89C419.93 247.64 431.46 256.05 443.46 263.91 455.46 269.64 467.8 273.7 480.07 276.13 491.96 276.28 503.19 275.79 513.08 275.38 524.84 274.79 532.46 282.89 528.01 292.28 523.99 300.08 519.49 309.25 515.98 319.29 515.87 329.83 519.05 340.8 525.97 351.79 536.89 362.92 549.89 373.82 562.84 384.2 574.22 394.58 580.73 403.9 581.45 412.19 577.32 420.55 567.98 428.1 555.05 435.07 540.49 442.57 525.41 450.09 511.25 458.08 499 467.36 488.81 477.8 480.59 489.64 474.58 502.95 469.66 517.39 465.13 532.24 461.5 546.77 457.25 559.75 451.96 569.68 446.72 576.21 440.11 577.89 432.09 574.31 423.97 567.24 414.5 556.62 403.78 544.22 393.05 533.42 381.66 525.1 369.87 520.25 358.15 519.9 346.12 522.56 334.07 527.02 322.31 533.24 310.83 538.55 300.08 541.81 290.12 543.56 281.43 542.04 274.49 537.39 268.81 530.68 265.13 521.47 263.54 510.56 262.71 498.61 263.25 485.89 264.59 473.05 264.92 460.01 264.73 447.26 263.5 435.12 260 423.02 255.34 411.56 250.09 400.91 244.11 390.27 239.63 380.87 237.42 372.69 237.02 364.42 239.74 357.23 245.3 351 252.66 344.43 261.98 338.45 272.46 332.75 283.12 326.14 293.9 319.19 304.36 311.59 313.93 302.56 323.01 292.6 331.66 281.87 339.43 270.31 347.18 258.87 355.14 248.44 362.64 239.31 370.76 232.82 379.67 229.81 388.44 229.64 398.21 233.14 409.07 239.89" stroke-dasharray="9 9" transform="rotate(48.48, 400, 400)" opacity="0.19"></path><path d="M416.98 250.76C427.25 258.1 437.88 266.14 448.67 273.86 459.39 279.84 470.05 284.47 480.25 287.68 489.97 288.79 498.68 289.12 505.83 289.23 515.08 291.19 507.25 309.76 504.11 321.43 505.61 329.99 509.94 339.2 517.31 348.72 527.85 358.37 539.88 368.09 551.67 377.63 562.13 387.17 568.46 396.06 569.88 404.33 567.21 412.71 559.86 420.72 549.03 428.58 536.29 436.95 522.43 445.68 508.72 455.05 496.06 465.43 484.8 476.84 475.12 489.26 467.24 502.52 460.53 516.27 454.53 529.76 449.55 542.41 444.45 553.14 438.83 560.79 433.47 565.35 427.14 565.65 419.73 561.47 412.29 554.55 403.7 544.7 393.97 533.35 384.24 523.36 373.92 515.34 363.26 510.13 352.72 508.72 342.01 509.96 331.46 512.99 321.27 517.96 311.57 522.65 302.78 526.05 291.41 528.78 277.77 519.06 275.91 507.53 275.58 498.18 276.18 487.72 277.23 476.74 277.13 465.4 276.42 454.01 274.75 442.92 271.05 431.8 266.39 421.13 261.26 411.09 255.47 401.05 251.02 392.08 248.55 384.11 247.58 376.03 249.39 368.77 253.82 362.17 259.97 355.16 268.13 348.43 277.65 341.72 287.68 334.14 298.18 326.12 308.67 317.49 318.65 307.77 328.32 297.39 337.63 286.64 346.23 275.55 354.69 264.96 363.15 255.66 371.19 247.78 379.58 242.46 388.47 240.34 397.22 240.7 406.7 244.3 416.98 250.76" stroke-dasharray="6 0" transform="rotate(52.52, 400, 400)" opacity="0.33"></path><path d="M421.65 261.62C431.23 268.54 440.81 276.17 450.19 283.65 459.46 289.77 468.32 294.84 476.39 298.74 496.9 304.17 493.75 317.89 493.12 327 495.97 333.75 501.18 341.31 508.76 349.43 518.79 357.65 529.84 366.24 540.5 375.01 550.05 383.78 556.12 392.32 558.09 400.64 556.67 409.09 551.14 417.54 542.34 426.15 531.57 435.2 519.28 444.77 506.55 454.97 494.19 465.87 482.57 477.54 472.06 489.78 462.85 502.31 454.69 514.8 447.35 526.51 440.97 537.07 434.82 545.55 428.57 551.08 422.68 553.92 416.25 553.09 409.13 548.54 402.04 541.87 394.1 532.81 385.31 522.48 376.52 513.31 367.34 505.64 358.01 500.21 348.8 497.94 339.62 497.92 330.79 499.57 322.33 503.19 314.51 506.96 307.67 510.05 299.04 513.56 289.67 509.11 288.84 501.12 288.7 494.28 289.14 486.14 289.76 477.19 289.17 467.82 287.95 458.07 285.87 448.28 282.03 438.41 277.4 428.69 272.43 419.31 266.88 409.93 262.5 401.31 259.83 393.4 258.38 385.38 259.36 377.87 262.7 370.73 267.61 363.2 274.49 355.71 282.84 348.07 291.92 339.72 301.73 330.92 311.82 321.65 321.76 311.66 331.61 301.32 341.21 290.96 350.35 280.67 359.31 271.16 368.16 263.12 376.67 256.52 385.31 252.33 394.16 251.03 402.91 251.85 412.06 255.48 421.65 261.62" stroke-dasharray="10 7" transform="rotate(56.56, 400, 400)" opacity="0.87"></path><path d="M422.19 272.49C430.99 278.95 439.43 286.12 447.37 293.3 455.2 299.43 462.33 304.81 468.5 309.25 482.47 317.47 481.35 328.73 483 335.85 486.91 341.13 492.72 347.3 500.3 354.2 509.71 361.16 519.76 368.72 529.33 376.79 537.98 384.85 543.74 393.05 546.09 401.34 545.71 409.75 541.79 418.44 534.92 427.46 526.16 436.8 515.66 446.67 504.32 457.07 492.84 467.83 481.54 479.06 470.87 490.44 461.01 501.69 451.95 512.49 443.64 522.18 436.11 530.59 429 536.94 422.08 540.57 415.53 541.95 408.82 540.26 401.79 535.51 394.83 529.19 387.39 520.93 379.45 511.61 371.5 503.25 363.46 496.01 355.5 490.49 347.65 487.54 340.04 486.44 332.94 486.83 309.18 495.29 301.95 483.72 302.08 473.72 300.98 466.34 299.28 458.31 296.84 449.92 292.91 441.43 288.37 432.78 283.6 424.12 278.32 415.47 274.07 407.21 271.27 399.35 269.43 391.38 269.68 383.63 272 376.01 275.69 368.07 281.25 360.01 288.28 351.72 296.15 342.94 304.94 333.79 314.23 324.35 323.66 314.55 333.21 304.68 342.68 295.1 351.93 285.88 361.04 277.63 369.97 270.91 378.7 265.58 387.4 262.45 396.07 261.88 404.67 263.07 413.39 266.7 422.19 272.49" stroke-dasharray="9 8" transform="rotate(60.599999999999994, 400, 400)" opacity="0.85"></path><path d="M418.51 283.36C426.44 289.34 433.76 296.01 440.38 302.81 446.9 308.84 452.57 314.36 457.23 319.19 467.69 330.67 470.15 341.53 473.72 347.35 478.4 351.59 484.53 356.71 491.91 362.63 500.61 368.58 509.66 375.27 518.18 382.67 525.94 390.06 531.31 397.84 533.91 405.92 534.35 414.08 531.82 422.67 526.71 431.64 519.88 440.78 511.29 450.39 501.61 460.32 491.46 470.34 481.07 480.51 470.87 490.5 461.06 500.09 451.73 508.94 443 516.53 434.8 522.87 427.05 527.26 419.65 529.27 412.57 529.49 405.59 527.18 398.61 522.42 391.73 516.53 384.69 509.08 377.5 500.74 370.31 493.18 363.32 486.42 356.64 480.95 346.95 476.53 330.68 476.51 324.73 478.78 317.97 481.82 314.79 473.72 314.11 466.28 312.51 460.67 310.39 454.25 307.67 447.23 303.71 440.12 299.3 432.56 294.77 424.68 289.8 416.81 285.72 408.99 282.87 401.28 280.74 393.49 280.38 385.68 281.78 377.81 284.33 369.73 288.58 361.44 294.23 352.94 300.73 344.15 308.24 335.13 316.41 326.02 324.9 316.84 333.71 307.83 342.58 299.34 351.45 291.39 360.27 284.5 368.92 279.11 377.49 274.99 385.94 272.83 394.21 272.88 402.45 274.38 410.58 277.94 418.51 283.36" stroke-dasharray="2 4" transform="rotate(64.64, 400, 400)" opacity="0.44"></path><path d="M411.3 294.23C418.32 299.71 424.61 305.84 430.11 312.18 437.84 320.74 448.6 334.35 451.54 339.22 454.61 345.32 460.17 355.3 465.21 360.43 470.36 364.07 476.54 368.48 483.55 373.68 491.47 378.87 499.51 384.84 507 391.59 513.9 398.34 518.85 405.57 521.56 413.19 522.62 420.85 521.25 428.95 517.68 437.38 512.65 445.86 505.94 454.64 498.06 463.54 489.54 472.34 480.48 481.03 471.3 489.28 462.15 497 453.2 503.84 444.63 509.39 436.35 513.84 428.43 516.56 420.91 517.26 413.62 516.59 406.56 513.9 399.74 509.28 392.99 503.89 386.34 497.26 379.84 489.87 373.33 483.11 367.26 476.89 361.67 471.58 340.08 465.46 329.35 466.44 328.64 464.35 327.29 460.88 322.49 448.64 318.33 440.31 314.42 434.44 310.2 427.94 305.94 420.89 301.32 413.84 297.46 406.59 294.63 399.22 292.32 391.81 291.46 384.21 292.08 376.46 293.61 368.59 296.62 360.5 300.92 352.27 305.99 343.94 312.08 335.52 318.9 327.18 326.14 318.99 333.83 311.14 341.73 303.96 349.76 297.39 357.84 291.88 365.82 287.79 373.82 284.78 381.67 283.49 389.28 284.06 396.9 285.78 404.28 289.22 411.3 294.23" stroke-dasharray="6 11" transform="rotate(68.68, 400, 400)" opacity="0.81"></path><path d="M401.94 305.1C414.14 315.11 423.43 326.57 429.65 337.32 435.81 345.16 439.37 351.76 441.28 357.67 445.15 361.64 450.08 366.75 457.41 373.79 468.98 380.46 482.74 389.81 495.83 402 507.11 414.19 511.17 428.23 507.83 443.17 499.83 457.98 486.68 472.99 471.34 486.22 455.33 497.3 439.45 504.09 424.91 504.58 410.85 501.21 397.76 492.06 386.01 479 374.27 467.88 364.78 458.89 357.81 453.11 348.73 451.79 340.47 449.64 336.98 442.03 331.39 435.48 324.47 425.8 317.11 413.41 308.57 401.01 303.52 387.22 302.92 372.76 305.03 358.21 311.96 343.01 322.25 328.42 334.25 314.87 347.98 303.69 361.83 297 376.01 293.87 389.73 296.57 401.94 305.1" stroke-dasharray="4 4" transform="rotate(72.72, 400, 400)" opacity="0.16"></path><path d="M392.2 315.97C402.64 324.88 410.7 335.3 416.44 345.52 422.38 353.76 426.71 361.22 430.27 368.05 435.62 373.24 442.07 379.04 450.22 386.05 461.24 392.63 473.46 401.23 484.66 412.06 494.5 422.88 498.74 435.01 497.17 447.51 492.07 459.68 482.4 471.37 470.26 480.94 457.07 488.65 443.28 492.52 430.24 491.34 417.36 487.56 405.36 479.38 394.86 468.13 384.35 458.35 376.16 449.79 370.26 443.41 362.18 439.5 352.63 434.29 347.67 427.63 341.8 422.31 335.06 414.25 328.28 403.57 320.56 392.88 315.67 380.7 314.33 367.89 314.86 355.23 319.39 342.29 326.94 330.34 335.98 319.58 346.89 311.21 358.3 306.81 370.13 305.16 381.77 308.21 392.2 315.97" stroke-dasharray="9 9" transform="rotate(76.76, 400, 400)" opacity="0.71"></path><path d="M383.95 326.84C392.72 334.61 399.9 343.82 405.58 353.19 411.55 361.34 416.73 369.14 421.66 376.46 428 382.57 435.25 388.97 443.51 396 453.57 402.64 464.11 410.59 473.49 419.98 481.89 429.37 486.04 439.35 485.77 449.12 483 458.54 476.44 466.99 467.47 473.28 457.41 478.16 446.3 479.84 435.36 477.64 424.35 473.83 413.89 466.74 404.68 457.27 395.46 448.85 388.22 440.97 382.85 434.44 375.14 428.68 363.86 420.19 357.81 413.71 351.91 408.97 345.56 402.11 339.45 393.09 332.62 384.07 328.08 373.84 326.27 363.22 325.67 352.85 328.22 342.56 333.33 333.47 339.58 325.48 347.65 319.7 356.52 317.22 365.77 316.73 375.19 319.94 383.95 326.84" stroke-dasharray="3 11" transform="rotate(80.80000000000001, 400, 400)" opacity="0.61"></path><path d="M378.76 337.71C385.97 344.28 392.4 352.15 398.07 360.39 404.01 367.97 409.73 375.53 415.44 382.8 422.12 389.3 429.43 395.92 437.18 402.75 445.93 409.29 454.7 416.51 462.32 424.39 469.28 432.26 473.09 440.04 473.68 447.16 472.65 454 468.64 459.62 462.54 463.27 455.53 466 447.28 466.21 438.73 463.57 430.03 460.06 421.44 454.15 413.6 446.4 405.76 439.37 399.33 432.41 394.23 426.15 388.88 421.48 384.46 417.26 380.74 413.24 376.21 410.14 371.77 406.4 367.35 401.69 361.72 397.18 355.96 391.24 350.62 383.83 344.77 376.42 340.71 368.29 338.74 360.1 337.43 352.17 338.51 344.61 341.65 338.28 345.52 332.81 351.04 329.23 357.52 328.26 364.28 328.61 371.55 331.75 378.76 337.71" stroke-dasharray="5 10" transform="rotate(84.84, 400, 400)" opacity="0.49"></path><path d="M377.61 348.58C389.11 359.34 400.46 373.56 411.41 387.15 424.49 399.15 439.2 411.89 451.15 424.49 461.8 442.07 439.3 450.55 419.94 435.53 407.21 425.05 397.24 414.27 389.69 404.97 380.06 398.12 370.13 389.17 361.79 377.43 350.47 359.59 361.32 339.13 377.61 348.58" stroke-dasharray="1 4" transform="rotate(88.88, 400, 400)" opacity="0.58"></path><path d="M380.73 359.44C389.42 367.64 399.29 378.76 409.11 389.76 419.87 400.16 431.24 410.88 439.98 420.27 448.59 432.74 436.37 435.91 422.48 424.66 412.87 416.62 404.07 407.46 396.65 399.02 388.14 391.89 379.64 383.77 372.96 375 363.99 362.34 369.02 351.43 380.73 359.44" stroke-dasharray="4 9" transform="rotate(92.92, 400, 400)" opacity="0.56"></path><path d="M387.51 370.31C399.3 381.46 417.42 400.09 428.81 412.48 438.62 424.86 433.48 425.7 420.73 413.79 407.97 403.63 392.96 388.71 384.13 376.98 373.88 365.24 375.72 360.8 387.51 370.31" stroke-dasharray="5 8" transform="rotate(96.96, 400, 400)" opacity="0.09"></path></g></svg>