<svg xmlns="http://www.w3.org/2000/svg" version="1.1" xmlns:xlink="http://www.w3.org/1999/xlink" xmlns:svgjs="http://svgjs.dev/svgjs" viewBox="0 0 800 800"><defs><linearGradient x1="50%" y1="0%" x2="50%" y2="100%" id="uundulate-grad"><stop stop-color="hsl(37, 4%, 82%)" stop-opacity="1" offset="45%"></stop><stop stop-color="hsl(193, 47%, 71%)" stop-opacity="1" offset="100%"></stop></linearGradient></defs><g stroke-width="2" stroke="url(#uundulate-grad)" fill="none"><path d="M669.1645352516801 139.98426343467344C699.869414712453 235.08906299024437 604.7788423602544 609.8393786701096 492.34118398799774 680.8517960472225C379.90352561574116 751.8642134243354 160.16865452562126 575.9486664003871 129.46377506484833 480.84386684481615C98.7588956040754 385.7390672892452 232.52010420403138 295.36117555759506 344.957762576288 224.3487581804821C457.3954209485446 153.33634080336918 638.4596557909073 44.8794638791025 669.1645352516801 139.98426343467344C699.869414712453 235.08906299024437 604.7788423602544 609.8393786701096 492.34118398799774 680.8517960472225 "></path><path d="M656.9297822621684 151.80311338774936C686.2389853838152 242.58496750897615 595.4707117748983 600.3011779306655 488.1438560559261 668.0857581542734C380.8170003369539 735.8703383778812 171.07007793274852 567.9509525822941 141.76087481110164 477.1690984610674C112.45167168945477 386.38724433984066 240.13282535304916 300.11743859599267 347.45968107202134 232.33285837238486C454.7865367909935 164.54827814877711 627.6205791405215 61.02125926652258 656.9297822621684 151.80311338774936C686.2389853838152 242.58496750897615 595.4707117748983 600.3011779306655 488.1438560559261 668.0857581542734 "></path><path d="M644.6950292726567 163.62202437598154C672.6085560551775 250.08093306286418 586.1625811895424 590.763038226378 483.9465281238545 655.3197812964806C381.7304750581667 719.8765243665832 181.97150133987583 559.9532997993575 154.057974557355 473.4943911124749C126.14444777483419 387.03548242559225 247.74554650206687 304.8737626695465 349.96159956775466 240.31701959944394C452.17765263344245 175.7602765293413 616.7815024901358 77.1631156890989 644.6950292726567 163.62202437598154C672.6085560551775 250.08093306286418 586.1625811895424 590.763038226378 483.9465281238545 655.3197812964806 "></path><path d="M632.4602762831449 175.44093536421371C658.9781267265397 257.57689861675226 576.8544506041862 581.2248985220904 479.74920019178285 642.5538044386878C382.64394977937945 703.8827103552854 192.87292474700314 551.9556470164209 166.35507430360838 469.8196837638825C139.83722386021356 387.68372051134395 255.35826765108465 309.6300867431005 352.4635180634881 248.301180826503C449.5687684758915 186.97227490990548 605.9424258397501 93.30497211167517 632.4602762831449 175.44093536421371C658.9781267265397 257.57689861675226 576.8544506041862 581.2248985220904 479.74920019178285 642.5538044386878 "></path><path d="M620.2255232936332 187.2598463524459C645.3476973979018 265.0728641706403 567.5463200188303 571.6867588178027 475.5518722597112 629.787827580895C383.5574245005922 687.8888963439874 203.77434815413045 543.9579942334843 178.65217404986169 466.1449764152899C153.52999994559298 388.33195859709554 262.97098880010236 314.38641081665446 354.9654365592214 256.28534205356203C446.9598843183405 198.18427329046966 595.1033491893644 109.4468285342515 620.2255232936332 187.2598463524459C645.3476973979018 265.0728641706403 567.5463200188303 571.6867588178027 475.5518722597112 629.787827580895 "></path><path d="M607.9907703041215 199.07872682309994C631.7172680692642 272.5687992069502 558.2381894334742 562.1485885959369 471.3545443276396 617.0218202055241C384.470899221805 671.8950518151114 214.67577156125776 535.9603109329696 190.94927379611505 462.47023854911936C167.22277603097234 388.9801661652691 270.58370994912013 319.14270437263025 357.46735505495485 264.269472763043C444.35100016078945 209.39624115345572 584.2642725389787 125.5886544392497 607.9907703041215 199.07872682309994C631.7172680692642 272.5687992069502 558.2381894334742 562.1485885959369 471.3545443276396 617.0218202055241 "></path><path d="M595.7560173146097 210.897607293754C618.0868387406264 280.0647342432601 548.9300588481183 552.6104183740711 467.15721639556796 604.2558128301532C385.38437394301775 655.9012072862354 225.57719496838507 527.9626276324548 203.24637354236836 458.7955006829486C180.9155521163517 389.6283737334426 278.19643109813785 323.89899792860604 359.9692735506881 272.2536034725239C441.7421160032384 220.60820901644178 573.425195888593 141.73048034424784 595.7560173146097 210.897607293754C618.0868387406264 280.0647342432601 548.9300588481183 552.6104183740711 467.15721639556796 604.2558128301532 "></path><path d="M583.521279583887 222.71651828198617C604.4564246707777 287.5606997971482 539.6219435215512 543.0722786697835 462.9599037222854 591.4898359723604C386.2978639230196 639.9073932749375 236.4786336343014 519.9649748495182 215.5434885474108 455.1207933343562C194.6083434605202 390.27661181919416 285.8091675059447 328.65532200215995 362.47120730521056 280.23776469958295C439.13324710447637 231.82020739700596 562.5861344969965 157.87233676682416 583.521279583887 222.71651828198617C604.4564246707777 287.5606997971482 539.6219435215512 543.0722786697835 462.9599037222854 591.4898359723604 "></path><path d="M571.2865265943752 234.53542927021834C590.8259953421398 295.0566653510362 530.3138129361953 533.5341389654958 458.76257579021376 578.7238591145677C387.21133864423234 623.9135792636396 247.3800570414287 511.9673220665816 227.84058829366415 451.4460859857637C208.30111954589955 390.92484990494586 293.42188865496246 333.41164607571386 364.9731258009439 288.22192592664203C436.5243629469254 243.03220577757014 551.7470578466107 174.0141931894005 571.2865265943752 234.53542927021834C590.8259953421398 295.0566653510362 530.3138129361953 533.5341389654958 458.76257579021376 578.7238591145677 "></path><path d="M559.0517888636525 246.35434025845052C577.1955812722911 302.55263090492423 521.0056976096283 523.9959992612082 454.5652631169312 565.957882256775C388.12482862423417 607.9197652523417 258.2814957073451 503.96966928364486 240.13770329870653 447.7713786371712C221.99391089006798 391.57308799069745 301.03462506276924 338.16797014926783 367.4750595554664 296.20608715370105C433.9154940481634 254.24420415813432 540.907996455014 190.15604961197675 559.0517888636525 246.35434025845052C577.1955812722911 302.55263090492423 521.0056976096283 523.9959992612082 454.5652631169312 565.957882256775 "></path><path d="M546.8170206153518 258.1732054703155C563.5651366848642 310.04855068244507 511.69755176548324 514.4578137805534 450.3679199260705 553.1918596226149C389.0382880866579 591.9259054646766 269.1829038556833 495.9719707243411 252.43478778617083 444.0966255122115C235.68667171665834 392.22128030008196 308.64733095299795 342.9242484464545 369.97696279241063 304.19020260439294C431.3065946318234 265.4561567623313 530.0689045458394 206.2978602581859 546.8170206153518 258.1732054703155C563.5651366848642 310.04855068244507 511.69755176548324 514.4578137805534 450.3679199260705 553.1918596226149 "></path><path d="M534.582237108262 269.99213171733675C549.9346768386483 317.5445314951222 502.3893906625491 504.9196893350547 446.17056147642074 540.4258980236112C389.95173229029245 575.9321067121678 280.0842967452325 487.97433320019354 264.731857014846 440.4219334224081C249.37941728445958 392.8695336446226 316.2600215844376 347.68058777879753 372.4788507705659 312.174379090241C428.6976799566942 276.66817040168456 519.2297973778755 222.43973193955128 534.582237108262 269.99213171733675C549.9346768386483 317.5445314951222 502.3893906625491 504.9196893350547 446.17056147642074 540.4258980236112 "></path><path d="M522.3475298951174 281.8110121879908C536.3042932863777 325.0404665314321 493.08130585356025 495.3815191131889 441.9732793207163 527.6598906482403C390.8652527878724 559.9382621832916 290.985765928727 479.9766498996787 277.02900253746657 436.74719555623744C263.07223914620613 393.5177412127961 323.8727885098225 352.43688133477326 374.9808150426664 320.15850979972197C426.0888415755103 287.8801382646706 508.390766503857 238.58155784454942 522.3475298951174 281.8110121879908C536.3042932863777 325.0404665314321 493.08130585356025 495.3815191131889 441.9732793207163 527.6598906482403 "></path><path d="M510.1127616468166 293.629923176223C522.6738486989509 332.53643208532014 483.77316000941516 485.84337940890134 437.7759361298556 514.8939137904475C391.7787122502961 543.9444481719937 301.8871740770652 471.9789971167422 289.32608702493087 433.07248820764494C276.7649999727965 394.16597929854777 331.4854944000512 357.19320540832723 377.4827182796107 328.14267102678104C423.47994215917026 299.0921366452348 497.55167459468225 254.72341426712575 510.1127616468166 293.629923176223C522.6738486989509 332.53643208532014 483.77316000941516 485.84337940890134 437.7759361298556 514.8939137904475 "></path><path d="M497.8780086573049 305.44880364687697C509.04341937031313 340.03236712163005 474.46502942405914 476.30520918703553 433.578608197784 502.1279064150766C392.6921869715089 527.9506036431177 312.7885974841925 463.9813138162274 301.6231867711842 429.3977503414743C290.45777605817585 394.8141868667213 339.0982155490689 361.949498964303 379.98463677534403 336.12680173626194C420.8710580016192 310.3041045082209 486.7125979442965 270.86524017212395 497.8780086573049 305.44880364687697C509.04341937031313 340.03236712163005 474.46502942405914 476.30520918703553 433.578608197784 502.1279064150766 "></path><path d="M485.6432709265821 317.2676993763201C495.4130053004644 347.528317416729 465.1569140974922 466.7670542239589 429.3812955245014 489.36191429849487C393.6056769515107 511.9567743730307 323.6900361501089 455.9836457745017 313.9203017762266 425.7230277340928C304.1505674023443 395.46240969368387 346.71095195687576 366.70580777906787 382.48657052986647 344.11094770453195C418.26218910285723 321.51608762999604 475.8735365526999 287.00708133591115 485.6432709265821 317.2676993763201C495.4130053004644 347.528317416729 465.1569140974922 466.7670542239589 429.3812955245014 489.36191429849487 "></path><path d="M473.4085179370704 329.08661036455226C481.78257597182665 355.0242829706171 455.84878351213615 457.2289145196712 425.1839675924298 476.59593744070196C394.51915167272347 495.9629603617328 334.5914595572362 447.98599299156507 326.2174015224799 422.0483203855003C317.8433434877237 396.1106477794355 354.3236731058935 371.4621318526218 384.98848902559985 352.09510893159097C415.6533049453062 332.7280860105602 465.0344599023142 303.1489377584875 473.4085179370704 329.08661036455226C481.78257597182665 355.0242829706171 455.84878351213615 457.2289145196712 425.1839675924298 476.59593744070196 "></path><path d="M461.17374968876965 340.90550609399537C468.1521313843998 362.52023326571606 446.54063766799106 447.69075955659446 420.9866244015691 463.82994532412016C395.4326111351471 479.9691310916458 345.49286770557444 439.98832494983935 338.5144860099442 418.3735977781187C331.536104314314 396.7588706063981 361.9363789961222 376.21844066738663 387.49039226254416 360.079254899861C413.0444055289661 343.94006913233534 454.1953679931394 319.29077892227474 461.17374968876965 340.90550609399537C468.1521313843998 362.52023326571606 446.54063766799106 447.69075955659446 420.9866244015691 463.82994532412016 "></path><path d="M448.9389966992579 352.7244018234385C454.52170205576203 370.016183560815 437.23250708263504 438.15260459351776 416.78929646949746 451.0639532075383C396.3460858563599 463.97530182155884 356.39429111270175 431.9906569081137 350.8115857561976 414.69887517073715C345.2288803996934 397.4070934333606 369.54910014513996 380.9747494821515 389.9923107582775 368.063400868131C410.43552137141506 355.15205225411046 443.3562913427537 335.43262008606195 448.9389966992579 352.7244018234385C454.52170205576203 370.016183560815 437.23250708263504 438.15260459351776 416.78929646949746 451.0639532075383 "></path><path d="M436.7042589685352 364.5432975528816C440.8912879859133 377.512133855914 427.9243917560681 428.6144496304411 412.5919837962149 438.29796109095645C397.2595758363617 447.9814725514719 367.29572977861807 423.99298886638803 363.10870076123996 411.02415256335564C358.92167174386185 398.0553162603232 377.16183655294674 385.7310582969164 392.4942445127999 376.04754683640095C407.8266524726531 366.3640353758856 432.5172299511571 351.5744612498492 436.7042589685352 364.5432975528816C440.8912879859133 377.512133855914 427.9243917560681 428.6144496304411 412.5919837962149 438.29796109095645 "></path><path d="M424.4695059790235 376.3621932823247C427.26085865727555 385.008084151013 418.61626117071205 419.0762946673644 408.39465586414326 425.53196897437465C398.17305055757447 431.98764328138486 378.1971531857454 415.9953208246623 375.4058005074933 407.3494299559741C372.6144478292412 398.7035390872858 384.7745577019645 390.48736711168124 394.9961630085333 384.03169280467097C405.21776831510203 377.5760184976607 421.6781533007714 367.71630241363647 424.4695059790235 376.3621932823247C427.26085865727555 385.008084151013 418.61626117071205 419.0762946673644 408.39465586414326 425.53196897437465 "></path><path d="M412.2347529895117 388.1811042705569C413.6304293286378 392.50404970490104 409.308130585356 409.5381549630767 404.19732793207163 412.76599211658186C399.08652527878724 415.99382927008696 389.0985765928727 407.9976680417257 387.70290025374663 403.67472260738157C386.30722391462064 399.3517771730374 392.3872788509822 395.24369118523515 397.4980815042666 392.01585403173C402.608884157551 388.7880168782249 410.8390766503857 383.85815883621274 412.2347529895117 388.1811042705569C413.6304293286378 392.50404970490104 409.308130585356 409.5381549630767 404.19732793207163 412.76599211658186 "></path></g></svg>